<?xml version="1.0" standalone="no"?>
<!DOCTYPE svg PUBLIC "-//W3C//DTD SVG 20010904//EN"
 "http://www.w3.org/TR/2001/REC-SVG-20010904/DTD/svg10.dtd">
<svg version="1.0" xmlns="http://www.w3.org/2000/svg"
 width="640.000000pt" height="640.000000pt" viewBox="0 0 640.000000 640.000000"
 preserveAspectRatio="xMidYMid meet">
<metadata>
Created by potrace 1.15, written by Peter Selinger 2001-2017
</metadata>
<g transform="translate(0.000000,640.000000) scale(0.100000,-0.100000)"
fill="#000000" stroke="none">
<path d="M450 5443 l0 -243 475 0 c261 0 475 -3 475 -7 0 -5 -9 -147 -20 -318
-11 -170 -20 -318 -20 -327 0 -17 -24 -18 -365 -18 l-365 0 0 -175 0 -175 355
0 355 0 -5 -52 c-3 -29 -50 -798 -105 -1708 -55 -910 -102 -1679 -106 -1707
-5 -52 -6 -53 -39 -53 -57 0 -113 -60 -130 -137 l-7 -33 387 0 387 0 -7 37
c-14 78 -69 133 -131 133 l-27 0 7 97 c3 54 35 823 71 1708 36 886 68 1634 71
1663 l5 52 1458 0 1457 0 68 -1647 c37 -907 70 -1699 73 -1760 l6 -113 -31 0
c-53 0 -110 -62 -127 -138 l-7 -32 387 0 387 0 -7 38 c-14 78 -69 132 -134
132 l-29 0 -7 83 c-12 155 -205 3352 -205 3395 l0 42 350 0 350 0 0 175 0 175
-365 0 -365 0 0 34 c0 41 -27 497 -35 579 l-5 57 475 0 475 0 0 243 0 243
-106 -13 c-322 -38 -954 -90 -1379 -112 -1178 -62 -2668 -22 -3747 102 l-198
23 0 -243z m2510 -578 l0 -335 -621 0 -621 0 6 83 c3 45 8 154 11 242 3 88 8
202 11 253 l6 92 604 0 604 0 0 -335z m1624 283 c3 -29 8 -127 11 -218 3 -91
8 -218 12 -282 l6 -118 -622 0 -621 0 0 335 0 335 604 0 605 0 5 -52z"/>
</g>
</svg>
